<svg width="current" height="current" viewBox="0 0 10 10" fill="none" xmlns="http://www.w3.org/2000/svg">
<path d="M5.00033 6.33335C5.7367 6.33335 6.33366 5.7364 6.33366 5.00002C6.33366 4.26364 5.7367 3.66669 5.00033 3.66669C4.26395 3.66669 3.66699 4.26364 3.66699 5.00002C3.66699 5.7364 4.26395 6.33335 5.00033 6.33335Z" fill="#777777"/>
<path d="M3.75016 0.833313L2.98766 1.66665H1.66683C1.2085 1.66665 0.833496 2.04165 0.833496 2.49998V7.49998C0.833496 7.95831 1.2085 8.33331 1.66683 8.33331H8.3335C8.79183 8.33331 9.16683 7.95831 9.16683 7.49998V2.49998C9.16683 2.04165 8.79183 1.66665 8.3335 1.66665H7.01266L6.25016 0.833313H3.75016ZM5.00016 7.08331C3.85016 7.08331 2.91683 6.14998 2.91683 4.99998C2.91683 3.84998 3.85016 2.91665 5.00016 2.91665C6.15016 2.91665 7.0835 3.84998 7.0835 4.99998C7.0835 6.14998 6.15016 7.08331 5.00016 7.08331Z" fill="#777777"/>
</svg>
