<svg style="width: current; height:current" viewBox="0 0 24 24" fill="none" xmlns="http://www.w3.org/2000/svg">
<path d="M11.178 19.569C11.2697 19.7022 11.3925 19.8112 11.5357 19.8864C11.6789 19.9617 11.8382 20.001 12 20.001C12.1618 20.001 12.3211 19.9617 12.4643 19.8864C12.6075 19.8112 12.7303 19.7022 12.822 19.569L21.822 6.569C21.9262 6.41906 21.9873 6.24343 21.9986 6.06121C22.01 5.87898 21.9712 5.69712 21.8865 5.53539C21.8018 5.37366 21.6743 5.23825 21.518 5.14386C21.3617 5.04947 21.1826 4.99971 21 5H3C2.81784 5.00075 2.63934 5.05115 2.48368 5.14576C2.32802 5.24038 2.2011 5.37564 2.11657 5.53699C2.03203 5.69835 1.99308 5.8797 2.00391 6.06153C2.01473 6.24337 2.07492 6.41881 2.178 6.569L11.178 19.569Z" fill="current"/>
</svg>
