<svg style="width: current; height:current" viewBox="0 0 23 21" fill="none" xmlns="http://www.w3.org/2000/svg">
<path d="M1.21968 17.8511L2.0863 18.3501L1.21968 17.8511C0.797466 18.5845 1.32677 19.5 2.17297 19.5H20.827C21.6732 19.5 22.2025 18.5845 21.7803 17.8511L20.9137 18.3501L21.7803 17.8511L12.4533 1.65156C12.0302 0.9167 10.9698 0.916703 10.5467 1.65155L11.4097 2.14845L10.5467 1.65155L1.21968 17.8511ZM10.72 2.64948L10.7206 2.6505C10.7204 2.65016 10.7202 2.64982 10.72 2.64948L10.72 2.64948Z" fill="white" stroke="#FF0000" stroke-width="2"/>
<path d="M11.08 14.12H12.28L12.448 7.964H10.888L11.08 14.12ZM10.96 16.676H12.4V15.272H10.96V16.676Z" fill="#FF0000"/>
</svg>
