<svg width="current" height="current" viewBox="0 0 38 38" fill="none" xmlns="http://www.w3.org/2000/svg">
<path d="M19 33.2501C17.9787 32.3444 16.8245 31.4023 15.6037 30.4001H15.5879C11.2892 26.8851 6.41725 22.9077 4.2655 18.1419C3.55856 16.6246 3.18393 14.9739 3.16664 13.3001C3.16192 11.0034 4.08305 8.8018 5.72186 7.19279C7.36067 5.58377 9.57882 4.7032 11.875 4.75007C13.7443 4.75302 15.5734 5.29328 17.1443 6.30649C17.8346 6.75452 18.4592 7.29647 19 7.91674C19.5439 7.29891 20.1686 6.75728 20.8572 6.30649C22.4275 5.29308 24.2561 4.75279 26.125 4.75007C28.4212 4.7032 30.6393 5.58377 32.2781 7.19279C33.9169 8.8018 34.8381 11.0034 34.8334 13.3001C34.8172 14.9765 34.4425 16.6301 33.7345 18.1498C31.5827 22.9157 26.7124 26.8914 22.4137 30.4001L22.3978 30.4127C21.1755 31.4087 20.0228 32.3507 19.0016 33.2627L19 33.2501ZM11.875 7.91674C10.4001 7.89828 8.97761 8.46274 7.91666 9.4874C6.89444 10.4915 6.32312 11.8672 6.33319 13.3001C6.35126 14.52 6.62756 15.7223 7.144 16.8277C8.15972 18.884 9.53025 20.745 11.1926 22.3251C12.7617 23.9084 14.5667 25.4411 16.1278 26.7299C16.5601 27.0862 17.0002 27.4456 17.4404 27.805L17.7175 28.0314C18.1402 28.3766 18.5772 28.7344 19 29.0859L19.0206 29.0669L19.0301 29.059H19.0396L19.0538 29.0479H19.0617H19.0697L19.0982 29.0242L19.1631 28.9719L19.1742 28.9624L19.1916 28.9497H19.2011L19.2153 28.9371L20.2667 28.0742L20.5422 27.8477C20.9871 27.4852 21.4272 27.1257 21.8595 26.7695C23.4207 25.4807 25.2272 23.9496 26.7963 22.3583C28.4589 20.779 29.8295 18.9186 30.8449 16.8626C31.3707 15.7476 31.6509 14.5327 31.6667 13.3001C31.6733 11.8716 31.1022 10.5012 30.0833 9.50007C29.0244 8.47078 27.6017 7.90167 26.125 7.91674C24.323 7.90142 22.6004 8.65674 21.3908 9.99249L19 12.7475L16.6092 9.99249C15.3996 8.65674 13.677 7.90142 11.875 7.91674Z" fill="current"/>
</svg>
