<svg width="current" height="current" viewBox="0 0 16 16" fill="none" xmlns="http://www.w3.org/2000/svg">
<path d="M12.4445 13.3333H2.66672V3.55551H8.54228L9.43117 2.66663H2.66672C2.43097 2.66663 2.20488 2.76028 2.03818 2.92698C1.87148 3.09367 1.77783 3.31977 1.77783 3.55551V13.3333C1.77783 13.569 1.87148 13.7951 2.03818 13.9618C2.20488 14.1285 2.43097 14.2222 2.66672 14.2222H12.4445C12.6802 14.2222 12.9063 14.1285 13.073 13.9618C13.2397 13.7951 13.3334 13.569 13.3334 13.3333V6.66663L12.4445 7.55551V13.3333Z" fill="#777777"/>
<path d="M14.9021 2.59563L13.4043 1.09785C13.3378 1.03119 13.2589 0.978312 13.1719 0.942229C13.085 0.906147 12.9918 0.887573 12.8976 0.887573C12.8035 0.887573 12.7103 0.906147 12.6234 0.942229C12.5364 0.978312 12.4575 1.03119 12.391 1.09785L6.29765 7.22674L5.80432 9.36451C5.7833 9.46814 5.78551 9.57514 5.81079 9.67781C5.83606 9.78048 5.88378 9.87627 5.95051 9.95829C6.01723 10.0403 6.1013 10.1065 6.19668 10.1522C6.29205 10.1978 6.39636 10.2218 6.50209 10.2223C6.55674 10.2283 6.61189 10.2283 6.66654 10.2223L8.82209 9.74674L14.9021 3.60896C14.9687 3.54249 15.0216 3.46352 15.0577 3.37658C15.0938 3.28963 15.1124 3.19643 15.1124 3.10229C15.1124 3.00816 15.0938 2.91495 15.0577 2.82801C15.0216 2.74107 14.9687 2.6621 14.9021 2.59563ZM8.35987 8.92451L6.73321 9.28451L7.11098 7.67118L11.6976 3.0534L12.951 4.30674L8.35987 8.92451ZM13.4532 3.80451L12.1999 2.55118L12.8888 1.84896L14.151 3.11118L13.4532 3.80451Z" fill="#777777"/>
</svg>
