<svg width="current" height="current" viewBox="0 0 12 12" fill="none" xmlns="http://www.w3.org/2000/svg">
<path fill-rule="evenodd" clip-rule="evenodd" d="M7.33746 11.4729C7.43603 11.5068 7.5427 11.5089 7.64256 11.4792C7.74243 11.4494 7.8305 11.3892 7.89446 11.3069L11.3945 6.80693C11.4627 6.71916 11.4998 6.61113 11.4998 6.49993C11.4998 6.38873 11.4627 6.2807 11.3945 6.19293L7.89446 1.69293C7.83047 1.61075 7.74242 1.55061 7.6426 1.5209C7.54277 1.49119 7.43616 1.49339 7.33765 1.5272C7.23914 1.56101 7.15365 1.62474 7.09311 1.70949C7.03257 1.79424 7.00001 1.89578 6.99996 1.99993V3.99493C4.31046 3.93893 3.01846 3.42843 2.36946 2.87343C1.75246 2.34593 1.63946 1.72543 1.52196 1.07543L1.49146 0.907928C1.46903 0.788074 1.40357 0.680551 1.30739 0.605586C1.21122 0.530622 1.09097 0.493383 0.969268 0.500878C0.847562 0.508373 0.73279 0.560085 0.646545 0.646284C0.5603 0.732483 0.508526 0.847226 0.500965 0.968928C0.414965 2.34293 0.543965 4.33393 1.51446 5.99943C2.45646 7.61593 4.15246 8.85893 6.99996 8.98893V10.9999C6.99994 11.1041 7.03244 11.2057 7.09295 11.2905C7.15346 11.3753 7.23895 11.4391 7.33746 11.4729Z" fill="#777777"/>
</svg>
