<svg style="width: current; height:current" viewBox="0 0 32 32" fill="none" xmlns="http://www.w3.org/2000/svg">
<path d="M22.9999 20C22.2514 20.0037 21.5133 20.1755 20.84 20.5026C20.1667 20.8297 19.5755 21.3038 19.1099 21.89L11.7999 17.32C12.0664 16.4601 12.0664 15.5398 11.7999 14.68L19.1099 10.11C19.8519 11.0287 20.8951 11.6551 22.0547 11.8784C23.2143 12.1016 24.4155 11.9072 25.4455 11.3296C26.4755 10.752 27.2678 9.82845 27.6821 8.72261C28.0963 7.61676 28.1058 6.39998 27.7089 5.28779C27.3119 4.17561 26.5341 3.23982 25.5133 2.64619C24.4925 2.05256 23.2944 1.83941 22.1315 2.0445C20.9685 2.24958 19.9157 2.85967 19.1595 3.76668C18.4033 4.67369 17.9925 5.81908 17.9999 6.99996C18.0047 7.44714 18.072 7.89145 18.1999 8.31996L10.8899 12.89C10.2446 12.0775 9.36248 11.486 8.36589 11.1974C7.3693 10.9087 6.3076 10.9372 5.32795 11.279C4.3483 11.6207 3.49923 12.2588 2.89843 13.1047C2.29762 13.9506 1.97485 14.9624 1.97485 16C1.97485 17.0375 2.29762 18.0494 2.89843 18.8953C3.49923 19.7412 4.3483 20.3792 5.32795 20.7209C6.3076 21.0627 7.3693 21.0912 8.36589 20.8026C9.36248 20.5139 10.2446 19.9224 10.8899 19.11L18.1999 23.68C18.072 24.1085 18.0047 24.5528 17.9999 25C17.9999 25.9889 18.2932 26.9556 18.8426 27.7778C19.392 28.6001 20.1729 29.2409 21.0865 29.6194C22.0002 29.9978 23.0055 30.0968 23.9754 29.9039C24.9453 29.711 25.8362 29.2348 26.5355 28.5355C27.2347 27.8362 27.7109 26.9453 27.9039 25.9754C28.0968 25.0055 27.9978 24.0002 27.6193 23.0865C27.2409 22.1729 26.6 21.392 25.7778 20.8426C24.9555 20.2932 23.9888 20 22.9999 20ZM22.9999 3.99996C23.5933 3.99996 24.1733 4.17591 24.6666 4.50555C25.16 4.8352 25.5445 5.30373 25.7716 5.85191C25.9986 6.40009 26.0581 7.00329 25.9423 7.58523C25.8265 8.16717 25.5408 8.70172 25.1213 9.12128C24.7017 9.54084 24.1672 9.82656 23.5852 9.94232C23.0033 10.0581 22.4001 9.99866 21.8519 9.7716C21.3037 9.54454 20.8352 9.16002 20.5055 8.66667C20.1759 8.17332 19.9999 7.5933 19.9999 6.99996C19.9999 6.20431 20.316 5.44125 20.8786 4.87864C21.4412 4.31603 22.2043 3.99996 22.9999 3.99996ZM6.99994 19C6.4066 19 5.82658 18.824 5.33323 18.4944C4.83988 18.1647 4.45536 17.6962 4.2283 17.148C4.00124 16.5998 3.94183 15.9966 4.05758 15.4147C4.17334 14.8327 4.45906 14.2982 4.87862 13.8786C5.29818 13.4591 5.83273 13.1734 6.41467 13.0576C6.99661 12.9418 7.59981 13.0013 8.14799 13.2283C8.69617 13.4554 9.1647 13.8399 9.49435 14.3332C9.82399 14.8266 9.99994 15.4066 9.99994 16C9.99994 16.7956 9.68387 17.5587 9.12126 18.1213C8.55865 18.6839 7.79559 19 6.99994 19ZM22.9999 28C22.4066 28 21.8266 27.824 21.3332 27.4944C20.8399 27.1647 20.4554 26.6962 20.2283 26.148C20.0012 25.5998 19.9418 24.9966 20.0576 24.4147C20.1733 23.8327 20.4591 23.2982 20.8786 22.8786C21.2982 22.4591 21.8327 22.1734 22.4147 22.0576C22.9966 21.9418 23.5998 22.0013 24.148 22.2283C24.6962 22.4554 25.1647 22.8399 25.4943 23.3333C25.824 23.8266 25.9999 24.4066 25.9999 25C25.9999 25.7956 25.6839 26.5587 25.1213 27.1213C24.5587 27.6839 23.7956 28 22.9999 28Z" fill="#777777"/>
</svg>
