<svg style="width: current; height:current" viewBox="0 0 58 25" fill="none" xmlns="http://www.w3.org/2000/svg">
<path fill-rule="evenodd" clip-rule="evenodd" d="M49.0484 9.80271C47.6534 11.3303 47.6534 13.6697 49.0484 15.1973L58 25H8C3.58173 25 0 21.4183 0 17V8C0 3.58172 3.58172 0 8 0H58L49.0484 9.80271Z" fill="url(#paint0_linear)"/>
<path d="M15.3101 17.594C17.6341 17.594 18.7401 16.46 18.7401 14.64C18.7401 12.932 17.8301 12.302 16.3181 11.868L15.4221 11.588C14.4701 11.322 14.1901 11 14.1901 10.244C14.1901 9.474 14.7501 9.054 15.7581 9.054C16.8221 9.054 17.6061 9.278 18.2081 9.53V8.186C17.6761 7.906 16.9901 7.668 15.7301 7.668C13.5601 7.668 12.5101 8.774 12.5101 10.398C12.5101 12.022 13.3361 12.75 14.6941 13.128L15.6041 13.38C16.6541 13.702 17.0041 14.01 17.0041 14.808C17.0041 15.676 16.4581 16.208 15.1701 16.208C14.1201 16.208 13.2101 15.956 12.4401 15.62V16.978C13.0981 17.328 14.0501 17.594 15.3101 17.594ZM25.7013 17.58C28.3053 17.58 30.0973 15.886 30.0973 12.778V12.47C30.0973 9.264 28.3473 7.668 25.7853 7.668C23.1673 7.668 21.3893 9.376 21.3893 12.47V12.778C21.3893 15.956 23.1113 17.58 25.7013 17.58ZM25.7573 16.25C23.9233 16.25 23.2233 14.934 23.2233 12.764V12.274C23.2233 10.328 24.0353 9.012 25.7013 9.012C27.5633 9.026 28.2633 10.328 28.2633 12.484V12.96C28.2633 14.92 27.4373 16.25 25.7573 16.25ZM35.5554 17.594C37.8794 17.594 38.9854 16.46 38.9854 14.64C38.9854 12.932 38.0754 12.302 36.5634 11.868L35.6674 11.588C34.7154 11.322 34.4354 11 34.4354 10.244C34.4354 9.474 34.9954 9.054 36.0034 9.054C37.0674 9.054 37.8514 9.278 38.4534 9.53V8.186C37.9214 7.906 37.2354 7.668 35.9754 7.668C33.8054 7.668 32.7554 8.774 32.7554 10.398C32.7554 12.022 33.5814 12.75 34.9394 13.128L35.8494 13.38C36.8994 13.702 37.2494 14.01 37.2494 14.808C37.2494 15.676 36.7034 16.208 35.4154 16.208C34.3654 16.208 33.4554 15.956 32.6854 15.62V16.978C33.3434 17.328 34.2954 17.594 35.5554 17.594Z" fill="white"/>
<defs>
<linearGradient id="paint0_linear" x1="0" y1="12.5" x2="58" y2="12.5" gradientUnits="userSpaceOnUse">
<stop stop-color="#F6D365"/>
<stop offset="1" stop-color="#FDA085"/>
</linearGradient>
</defs>
</svg>
