<svg style="width: current; height:current" viewBox="0 0 25 25" fill="none" xmlns="http://www.w3.org/2000/svg">
<circle cx="12.5" cy="12.5" r="11.5" fill="white" stroke="#008000" stroke-width="2"/>
<mask id="path-2-inside-1" fill="white">
<path d="M10.2371 15.6454L7.09163 12.4999L6.02051 13.5635L10.2371 17.7801L19.2888 8.72837L18.2253 7.66479L10.2371 15.6454Z"/>
</mask>
<path d="M10.2371 15.6454L7.09163 12.4999L6.02051 13.5635L10.2371 17.7801L19.2888 8.72837L18.2253 7.66479L10.2371 15.6454Z" fill="#008000"/>
<path d="M10.2371 15.6454L8.82289 17.0596L10.2364 18.4732L11.6506 17.0603L10.2371 15.6454ZM7.09163 12.4999L8.50584 11.0857L7.09662 9.67649L5.68242 11.0807L7.09163 12.4999ZM6.02051 13.5635L4.6113 12.1443L3.18707 13.5585L4.60629 14.9777L6.02051 13.5635ZM10.2371 17.7801L8.82289 19.1943L10.2371 20.6085L11.6513 19.1943L10.2371 17.7801ZM19.2888 8.72837L20.703 10.1426L22.1173 8.72837L20.703 7.31416L19.2888 8.72837ZM18.2253 7.66479L19.6395 6.25058L18.2259 4.83704L16.8117 6.24991L18.2253 7.66479ZM11.6513 14.2312L8.50584 11.0857L5.67742 13.9141L8.82289 17.0596L11.6513 14.2312ZM5.68242 11.0807L4.6113 12.1443L7.42972 14.9827L8.50084 13.9191L5.68242 11.0807ZM4.60629 14.9777L8.82289 19.1943L11.6513 16.3659L7.43472 12.1493L4.60629 14.9777ZM11.6513 19.1943L20.703 10.1426L17.8746 7.31416L8.82289 16.3659L11.6513 19.1943ZM20.703 7.31416L19.6395 6.25058L16.811 9.07901L17.8746 10.1426L20.703 7.31416ZM16.8117 6.24991L8.82356 14.2305L11.6506 17.0603L19.6388 9.07968L16.8117 6.24991Z" fill="#008000" mask="url(#path-2-inside-1)"/>
</svg>
