<svg width="current" height="current" viewBox="0 0 14 13" fill="none" xmlns="http://www.w3.org/2000/svg">
<path d="M13.0956 7.38521L13.0944 7.3881L11.3358 11.454C11.1839 11.6875 10.9163 11.8333 10.6333 11.8333H5.22665C4.6414 11.8333 4.16665 11.3557 4.16665 10.7799V5.55325C4.16665 5.33271 4.25384 5.11983 4.41353 4.96014L8.32945 1.04422C8.50943 1.23309 8.65838 1.44728 8.78013 1.68495C8.79501 1.71566 8.79976 1.75679 8.79241 1.78911L8.79222 1.78906L8.78949 1.80288L8.17615 4.90288L8.05803 5.49992H8.66665H12.3333C12.7905 5.49992 13.1666 5.87606 13.1666 6.33325V7.05325C13.1666 7.16757 13.1423 7.27919 13.0956 7.38521ZM1.66665 11.8333H0.833313V5.49992H1.66665C1.75717 5.49992 1.83331 5.57606 1.83331 5.66659V11.6666C1.83331 11.7571 1.75717 11.8333 1.66665 11.8333Z" stroke="#777777"/>
</svg>
