<svg width="current" height="current" viewBox="0 0 30 22" fill="none" xmlns="http://www.w3.org/2000/svg">
<path d="M15 21.5C12.5398 21.5307 10.1051 20.9997 7.881 19.9475C6.15704 19.1064 4.60898 17.9447 3.3195 16.5245C1.95365 15.0562 0.878201 13.3425 0.15 11.474L0 11L0.1575 10.526C0.886223 8.65918 1.95935 6.94593 3.321 5.47553C4.61001 4.0555 6.15756 2.89382 7.881 2.05253C10.1051 1.00041 12.5398 0.469446 15 0.500029C17.4602 0.469499 19.8949 1.00046 22.119 2.05253C23.843 2.89363 25.3911 4.05532 26.6805 5.47553C28.0489 6.94186 29.1247 8.65608 29.85 10.526L30 11L29.8425 11.474C27.4893 17.5997 21.5613 21.6041 15 21.5ZM15 3.50003C9.8938 3.34002 5.20713 6.31267 3.1755 11C5.2068 15.6877 9.89369 18.6605 15 18.5C20.1061 18.6596 24.7925 15.6871 26.8245 11C24.7955 6.3104 20.1071 3.33665 15 3.50003ZM15 15.5C12.836 15.5144 10.9641 13.9961 10.5314 11.8757C10.0988 9.75531 11.2264 7.62506 13.2231 6.79052C15.2197 5.95598 17.5279 6.65023 18.7328 8.44779C19.9378 10.2453 19.7031 12.6441 18.1725 14.174C17.3345 15.0219 16.1921 15.4994 15 15.5Z" fill="current"/>
</svg>
